<svg width="208" height="29" viewBox="0 0 208 29" fill="none" xmlns="http://www.w3.org/2000/svg">
<path d="M58.6888 4.55695V22.9182H54.9864V10.1067L50.2519 22.9182H47.0257L42.2911 10.1597V22.9182H38.5621V4.55695H43.0835L48.6904 18.3652L54.194 4.55695H58.6888Z" fill="#4D5B6D"/>
<path d="M75.2998 16.3422H64.5622C64.6155 17.6403 64.9684 18.5973 65.621 19.2098C66.2736 19.8224 67.0826 20.1304 68.0548 20.1304C68.9172 20.1304 69.6363 19.9218 70.209 19.4979C70.7817 19.0774 71.1479 18.5079 71.3077 17.7893H75.2498C75.0567 18.8059 74.6405 19.7198 74.0079 20.5244C73.372 21.3324 72.5563 21.9616 71.5608 22.4185C70.5653 22.8755 69.4565 23.1007 68.2413 23.1007C66.8129 23.1007 65.5444 22.7993 64.4324 22.1933C63.3203 21.5874 62.458 20.7231 61.842 19.6006C61.2261 18.478 60.9164 17.1535 60.9164 15.6303C60.9164 14.1071 61.2261 12.7759 61.842 11.6435C62.458 10.511 63.3236 9.65005 64.4324 9.05402C65.5444 8.45798 66.8129 8.15996 68.2413 8.15996C69.6696 8.15996 70.9515 8.45798 72.0369 9.05402C73.1223 9.65005 73.958 10.4713 74.5506 11.5143C75.14 12.5574 75.4363 13.7462 75.4363 15.0773C75.4363 15.4449 75.393 15.8654 75.3031 16.3389M70.7417 11.9978C70.0625 11.3852 69.2301 11.0772 68.2413 11.0772C67.2524 11.0772 66.3901 11.3852 65.7009 11.9978C65.015 12.6104 64.6355 13.5144 64.5622 14.7064H71.6773C71.7306 13.5144 71.4176 12.6104 70.7384 11.9978" fill="#4D5B6D"/>
<path d="M90.4288 9.79234C91.4343 10.8983 91.937 12.448 91.937 14.4481V22.9184H88.2347V14.8686C88.2347 13.7096 87.935 12.8123 87.3357 12.1732C86.7364 11.5341 85.9173 11.2129 84.8752 11.2129C83.8331 11.2129 82.9707 11.554 82.3348 12.2394C81.6989 12.9215 81.3826 13.905 81.3826 15.1865V22.9217H77.6536V8.34529H81.3826V11.2659C81.7688 10.2824 82.4081 9.5175 83.3004 8.96451C84.1893 8.41152 85.2181 8.13668 86.3801 8.13668C88.0715 8.13668 89.4199 8.68967 90.4254 9.79565" fill="#4D5B6D"/>
<path d="M103.69 9.02724C104.562 9.60672 105.192 10.3849 105.581 11.3683V3.48077H109.284V22.9182H105.581V19.8685C105.192 20.8487 104.562 21.6368 103.69 22.2229C102.818 22.8123 101.762 23.1037 100.53 23.1037C99.2985 23.1037 98.1865 22.8057 97.1976 22.2096C96.2087 21.6136 95.4396 20.7493 94.8836 19.6202C94.3276 18.4877 94.0512 17.1599 94.0512 15.6333C94.0512 14.1068 94.3276 12.779 94.8836 11.6465C95.4396 10.514 96.2087 9.65308 97.1976 9.05373C98.1865 8.45769 99.2952 8.15967 100.53 8.15967C101.766 8.15967 102.818 8.44776 103.69 9.02724ZM98.889 12.524C98.1831 13.279 97.8302 14.3121 97.8302 15.6267C97.8302 16.9413 98.1831 17.9711 98.889 18.7162C99.5948 19.4612 100.53 19.8354 101.692 19.8354C102.854 19.8354 103.75 19.4546 104.482 18.6897C105.215 17.9281 105.581 16.9049 105.581 15.6267C105.581 14.3485 105.215 13.2989 104.482 12.5372C103.75 11.7723 102.821 11.3915 101.692 11.3915C100.564 11.3915 99.5948 11.769 98.889 12.524Z" fill="#4D5B6D"/>
<path d="M125.894 16.3422H115.157C115.21 17.6403 115.563 18.5973 116.215 19.2098C116.868 19.8224 117.68 20.1304 118.649 20.1304C119.512 20.1304 120.231 19.9218 120.803 19.4979C121.376 19.0774 121.742 18.5079 121.902 17.7893H125.844C125.651 18.8059 125.235 19.7198 124.602 20.5244C123.966 21.3324 123.151 21.9616 122.155 22.4185C121.16 22.8755 120.051 23.1007 118.836 23.1007C117.407 23.1007 116.139 22.7993 115.027 22.1933C113.915 21.5874 113.052 20.7231 112.436 19.6006C111.817 18.478 111.511 17.1535 111.511 15.6303C111.511 14.1071 111.82 12.7759 112.436 11.6435C113.052 10.511 113.918 9.65005 115.027 9.05402C116.139 8.45798 117.407 8.15996 118.836 8.15996C120.264 8.15996 121.546 8.45798 122.631 9.05402C123.717 9.65005 124.552 10.4713 125.142 11.5143C125.734 12.5574 126.027 13.7462 126.027 15.0773C126.027 15.4449 125.984 15.8654 125.894 16.3389M121.333 11.9978C120.654 11.3852 119.821 11.0772 118.832 11.0772C117.844 11.0772 116.981 11.3852 116.292 11.9978C115.606 12.6104 115.227 13.5144 115.157 14.7064H122.272C122.325 13.5144 122.012 12.6104 121.333 11.9978Z" fill="#4D5B6D"/>
<path d="M131.977 3.48077H128.248V22.9182H131.977V3.48077Z" fill="#4D5B6D"/>
<path d="M8.60015 5.21922C8.60015 6.1795 7.81772 6.95766 6.85217 6.95766C5.88662 6.95766 5.10086 6.1795 5.10086 5.21922C5.10086 4.25893 5.88329 3.48077 6.85217 3.48077C7.82105 3.48077 8.60015 4.25893 8.60015 5.21922Z" fill="#4D5B6D"/>
<path d="M21.858 10.9183L16.1113 19.1602C16.1113 19.1602 16.0781 19.1635 16.0847 19.1469L20.0068 7.72284L15.5686 0.0869223C15.502 -0.0289741 15.3389 -0.0289741 15.2723 0.0869223L0 26.3954H5.15403L14.0637 11.0408C14.077 11.0176 14.1137 11.0309 14.1037 11.0573C13.3545 13.0342 8.84642 26.3954 8.84642 26.3954H18.0258C18.0258 26.3954 21.6283 20.0675 22.181 19.1171C22.191 19.0972 20.979 26.3954 20.979 26.3954H30.841L21.858 10.9183Z" fill="#4D5B6D"/>
<path d="M145.059 22.6978L137.822 3.51281H139.239L145.96 21.5132H145.419L152.115 3.51281H153.531L146.295 22.6978H145.059ZM155.856 22.6978V9.15241H157.015V22.6978H155.856ZM155.856 6.34548V3.51281H157.015V6.34548H155.856ZM164.862 23.0068C164.038 23.0068 163.291 22.8523 162.621 22.5432C161.969 22.2171 161.445 21.7707 161.05 21.2042C160.655 20.6205 160.458 19.9509 160.458 19.1955C160.458 18.5775 160.595 17.9852 160.87 17.4187C161.162 16.835 161.625 16.3285 162.261 15.8993C162.913 15.4701 163.78 15.1697 164.862 14.998L170.527 14.0452V15.1525L165.248 16.0281C163.909 16.2513 162.973 16.6461 162.441 17.2127C161.909 17.7792 161.643 18.423 161.643 19.144C161.643 20.0024 161.96 20.6805 162.595 21.1784C163.231 21.6763 164.02 21.9252 164.965 21.9252C166.012 21.9252 166.913 21.6763 167.669 21.1784C168.441 20.6805 169.042 20.0282 169.471 19.2213C169.9 18.3972 170.115 17.5131 170.115 16.5689V13.2984C170.115 12.2855 169.763 11.4786 169.059 10.8778C168.372 10.2597 167.454 9.95071 166.304 9.95071C165.428 9.95071 164.621 10.1653 163.883 10.5945C163.145 11.0237 162.57 11.5902 162.158 12.2941L161.128 11.7533C161.385 11.2383 161.763 10.7662 162.261 10.337C162.776 9.89062 163.377 9.5301 164.063 9.25542C164.75 8.98073 165.497 8.84339 166.304 8.84339C167.282 8.84339 168.141 9.03223 168.879 9.40992C169.634 9.78761 170.218 10.3112 170.63 10.9808C171.059 11.6503 171.274 12.4229 171.274 13.2984V22.6978H170.115V19.7363H170.218C169.995 20.3029 169.626 20.8351 169.111 21.3329C168.596 21.8308 167.978 22.2342 167.256 22.5432C166.535 22.8523 165.737 23.0068 164.862 23.0068ZM172.567 28.3631C172.361 28.3631 172.181 28.3459 172.026 28.3116C171.854 28.2944 171.7 28.2687 171.563 28.2343V27.1785C171.854 27.23 172.164 27.2558 172.49 27.2558C173.382 27.2558 174.069 26.9983 174.55 26.4832C175.048 25.9854 175.297 25.2557 175.297 24.2944V9.15241H176.455V24.2944C176.455 25.1699 176.292 25.9081 175.966 26.509C175.64 27.127 175.185 27.5906 174.601 27.8996C174.035 28.2086 173.357 28.3631 172.567 28.3631ZM175.297 6.34548V3.51281H176.455V6.34548H175.297ZM186.723 23.0068C185.435 23.0068 184.276 22.6978 183.246 22.0797C182.216 21.4445 181.401 20.5947 180.8 19.5303C180.199 18.4487 179.899 17.247 179.899 15.9251C179.899 14.586 180.19 13.3843 180.774 12.3199C181.358 11.2383 182.139 10.3885 183.117 9.77045C184.113 9.15241 185.229 8.84339 186.465 8.84339C187.341 8.84339 188.156 9.00648 188.912 9.33267C189.667 9.65886 190.319 10.1138 190.869 10.6975C191.435 11.2812 191.873 11.9679 192.182 12.7576C192.491 13.5302 192.646 14.3714 192.646 15.2813C192.646 15.453 192.637 15.6161 192.62 15.7706C192.62 15.9251 192.603 16.0968 192.568 16.2856H180.491V15.2555H191.899L191.461 15.5903C191.512 14.5259 191.324 13.5731 190.894 12.7319C190.465 11.8735 189.864 11.1954 189.092 10.6975C188.319 10.1825 187.444 9.92496 186.465 9.92496C185.452 9.92496 184.534 10.1911 183.71 10.7233C182.903 11.2555 182.259 11.9765 181.778 12.8864C181.298 13.7791 181.057 14.792 181.057 15.9251C181.057 17.0582 181.306 18.0796 181.804 18.9895C182.302 19.8994 182.972 20.6205 183.813 21.1527C184.671 21.6677 185.641 21.9252 186.723 21.9252C187.701 21.9252 188.585 21.6934 189.375 21.2299C190.165 20.7664 190.8 20.114 191.281 19.2728L192.259 19.7878C191.933 20.4402 191.487 21.0153 190.92 21.5132C190.354 21.9939 189.71 22.363 188.989 22.6205C188.285 22.878 187.53 23.0068 186.723 23.0068ZM200.524 23.0068C199.323 23.0068 198.258 22.7149 197.331 22.1312C196.404 21.5303 195.709 20.7063 195.245 19.6591L196.327 19.1698C196.773 20.0282 197.357 20.6977 198.078 21.1784C198.816 21.6591 199.632 21.8995 200.524 21.8995C201.486 21.8995 202.293 21.6591 202.945 21.1784C203.615 20.6977 203.949 20.0625 203.949 19.2728C203.949 18.8608 203.855 18.4917 203.666 18.1655C203.477 17.8393 203.194 17.556 202.816 17.3157C202.456 17.0582 202.009 16.8607 201.477 16.7234L199.237 16.1053C198.138 15.8135 197.314 15.3671 196.765 14.7663C196.215 14.1482 195.941 13.4014 195.941 12.5259C195.941 11.8048 196.121 11.1696 196.481 10.6203C196.859 10.0537 197.365 9.61594 198.001 9.30692C198.636 8.9979 199.34 8.84339 200.112 8.84339C201.211 8.84339 202.207 9.12666 203.099 9.69319C204.009 10.2426 204.636 10.9722 204.979 11.8821L203.846 12.3971C203.469 11.6246 202.954 11.0237 202.301 10.5945C201.649 10.1653 200.919 9.95071 200.112 9.95071C199.254 9.95071 198.541 10.1911 197.975 10.6718C197.408 11.1525 197.125 11.7619 197.125 12.5001C197.125 12.8778 197.211 13.2212 197.383 13.5302C197.554 13.822 197.812 14.0795 198.155 14.3027C198.499 14.5259 198.919 14.7062 199.417 14.8435L201.683 15.4873C202.799 15.7963 203.657 16.277 204.258 16.9294C204.859 17.5646 205.16 18.3286 205.16 19.2213C205.16 19.9423 204.954 20.5947 204.542 21.1784C204.13 21.7449 203.572 22.1913 202.868 22.5175C202.181 22.8437 201.4 23.0068 200.524 23.0068Z" fill="#4D5B6D"/>
</svg>
